<?xml version="1.0" encoding="utf-8"?>
<!-- Generator: Adobe Illustrator 25.2.3, SVG Export Plug-In . SVG Version: 6.00 Build 0)  -->
<svg version="1.1" id="Layer_1" xmlns="http://www.w3.org/2000/svg" xmlns:xlink="http://www.w3.org/1999/xlink" x="0px" y="0px"
	 viewBox="0 0 1920 2062" style="enable-background:new 0 0 1920 2062;" xml:space="preserve">
<style type="text/css">
	.st0{fill:#3C0A67;}
	.st1{opacity:0.7;fill:url(#Path_10_1_);enable-background:new    ;}
	.st2{opacity:0.7;fill:url(#Path_11_1_);enable-background:new    ;}
	.st3{opacity:0.5;fill:url(#Path_12_1_);enable-background:new    ;}
	.st4{opacity:0.7;fill:url(#Path_6_1_);enable-background:new    ;}
	.st5{opacity:0.7;fill:url(#Path_7_1_);enable-background:new    ;}
	.st6{opacity:0.5;fill:url(#Path_8_1_);enable-background:new    ;}
</style>
<g id="Group_9">
	<g id="Group_8">
		<path id="Path_9" class="st0" d="M2360,184.6c-9.3-28.7-25.8-54.5-48.1-74.8c-20.4-22.2-46.2-38.8-74.8-48.1
			c-27.7-14.5-57.6-21.2-89.6-20l-61.8,8.3c-38.8,10.7-74.2,31.3-102.6,59.8l-36.4,47.1c-20.8,35.6-31.8,76.1-31.7,117.3
			c-0.1,4.5-0.3,9-0.6,13.5c-3.8,17.8-8.7,35.3-14.7,52.5c-10.4,20.8-22.3,40.9-35.5,60.1c-17.5,20.2-36.4,39-56.6,56.5
			c-30,20.7-61.7,38.9-94.7,54.5c-54.3,20.3-110.7,34.6-167.8,44.1c-47.7,5-95.6,7.7-143.3,12.6c-48,5-96.2,10.7-143.6,20
			c-27.7,5.5-55,12.8-81.3,23c-43.2,16.8-88.4,34.2-126.7,61.2c-20.8,14.7-40.8,30.8-60.8,46.6c-5,4-9.9,8.1-14.7,12.4
			c-9.5,8.5-18.6,17.5-27.1,26.9C900,810.4,860,869.5,824.5,930.5c-24.1,41.4-47.3,83.6-74.6,123c-14.8,16.9-30.8,32.7-47.8,47.4
			c-31.1,21.5-64,40.2-97.8,57.1c-26.5,14.1-49,34.7-65.2,59.9c-20.5,22.3-34.8,49.6-41.6,79.1c-9.7,30.9-11.1,61.8-4.1,92.7
			c1.4,30.9,10.6,59.8,27.6,86.4l36.3,47c28.4,28.5,63.8,49.1,102.6,59.8l61.8,8.3c41.2,0.1,81.8-10.9,117.3-31.7
			c36-17.9,70.9-37.8,103.7-61.1c47.5-33.7,95.8-70.1,134.5-114.2l2.2-2.5c15.2,19.5,34.3,35.5,56.2,47.2l55.5,23.4
			c40.5,11.1,83.2,11.1,123.6,0l55.5-23.4c18.2-10.7,34.9-23.8,49.6-39c8.4-1.9,16.9-3.7,25.3-5.4c21.8-4.4,43.6-8.4,65.5-11.8
			c51.6-5.9,103.7-9.3,155.7-8.6c7.1,9,14.3,17.9,21.4,26.7c1.8,2.3,3.7,4.5,5.7,6.7c1.8,1.9,3.6,3.6,5.6,5.3
			c16.5,14.6,35.1,28.4,53,41.2c4.5,3.2,9.2,6.1,14.1,8.5c22.1,10.7,45.7,22.3,69.9,28.8c2.6,0.7,5.2,1.2,7.9,1.7
			c20,3.7,43.9,6.3,64.2,8.7c1.6,0.2,3.1,0.4,4.7,0.6c6.3,0.5,12.6,0.5,18.9-0.2c24.5-2.3,53.9-4.6,79.3-11.7
			c25-7,48.9-18.8,72.4-29.7c6.5-3,12.8-6.6,18.7-10.8c17.9-12.7,35.8-26.8,52.8-40.7c3.1-2.5,6.1-5.2,8.9-8
			c28.5-28.4,49.1-63.8,59.8-102.6c9.7-30.9,11.1-61.8,4.1-92.7c-1.3-30.8-10.9-60.6-27.6-86.4c-19.8-33.8-47.8-62-81.4-82.2
			c-11.7-29.1-29.1-55.4-51.3-77.6l-47-36.3c-12.3-7.1-25.2-13.2-38.6-18c4.3-2.3,8.6-4.7,12.8-7.1c47.3-27,90.9-60.6,132.9-95.2
			c25.4-20.9,48.9-44.1,70.1-69.3c33.2-39.3,65.8-80.8,91.3-125.8c9.1-16.2,17.4-32.8,24.7-49.9c14.8-34.5,30.7-69.2,41.3-105.4
			c5.2-17.7,9.2-35.8,12.1-54c5.8-37.6,12.1-76.4,13-114.7C2381.2,242.2,2374.6,212.3,2360,184.6z"/>
		
			<linearGradient id="Path_10_1_" gradientUnits="userSpaceOnUse" x1="0.26" y1="489.7364" x2="1.26" y2="489.7364" gradientTransform="matrix(1891.17 0 0 1549.78 -7.12 -758167.3125)">
			<stop  offset="0.16" style="stop-color:#3C0A67"/>
			<stop  offset="1" style="stop-color:#84DBF6"/>
		</linearGradient>
		<path id="Path_10" class="st1" d="M2360,184.6c-9.3-28.7-25.8-54.5-48.1-74.8c-20.4-22.2-46.2-38.8-74.8-48.1
			c-27.7-14.5-57.6-21.2-89.6-20l-61.8,8.3c-38.8,10.7-74.2,31.3-102.6,59.8l-36.4,47.1c-20.8,35.6-31.8,76.1-31.7,117.3
			c-0.1,4.5-0.3,9-0.6,13.5c-3.8,17.8-8.7,35.3-14.7,52.5c-10.4,20.8-22.3,40.9-35.5,60.1c-17.5,20.2-36.4,39-56.6,56.5
			c-30,20.7-61.7,38.9-94.7,54.5c-54.3,20.3-110.7,34.6-167.8,44.1c-47.7,5-95.6,7.7-143.3,12.6c-48,5-96.2,10.7-143.6,20
			c-27.7,5.5-55,12.8-81.3,23c-43.2,16.8-88.4,34.2-126.7,61.2c-20.8,14.7-40.8,30.8-60.8,46.6c-5,4-9.9,8.1-14.7,12.4
			c-9.5,8.5-18.6,17.5-27.1,26.9C900,810.4,860,869.5,824.5,930.5c-24.1,41.4-47.3,83.6-74.6,123c-14.8,16.9-30.8,32.7-47.8,47.4
			c-31.1,21.5-64,40.2-97.8,57.1c-26.5,14.1-49,34.7-65.2,59.9c-20.5,22.3-34.8,49.6-41.6,79.1c-9.7,30.9-11.1,61.8-4.1,92.7
			c1.4,30.9,10.6,59.8,27.6,86.4l36.3,47c28.4,28.5,63.8,49.1,102.6,59.8l61.8,8.3c41.2,0.1,81.8-10.9,117.3-31.7
			c36-17.9,70.9-37.8,103.7-61.1c47.5-33.7,95.8-70.1,134.5-114.2l2.2-2.5c15.2,19.5,34.3,35.5,56.2,47.2l55.5,23.4
			c40.5,11.1,83.2,11.1,123.6,0l55.5-23.4c18.2-10.7,34.9-23.8,49.6-39c8.4-1.9,16.9-3.7,25.3-5.4c21.8-4.4,43.6-8.4,65.5-11.8
			c51.6-5.9,103.7-9.3,155.7-8.6c7.1,9,14.3,17.9,21.4,26.7c1.8,2.3,3.7,4.5,5.7,6.7c1.8,1.9,3.6,3.6,5.6,5.3
			c16.5,14.6,35.1,28.4,53,41.2c4.5,3.2,9.2,6.1,14.1,8.5c22.1,10.7,45.7,22.3,69.9,28.8c2.6,0.7,5.2,1.2,7.9,1.7
			c20,3.7,43.9,6.3,64.2,8.7c1.6,0.2,3.1,0.4,4.7,0.6c6.3,0.5,12.6,0.5,18.9-0.2c24.5-2.3,53.9-4.6,79.3-11.7
			c25-7,48.9-18.8,72.4-29.7c6.5-3,12.8-6.6,18.7-10.8c17.9-12.7,35.8-26.8,52.8-40.7c3.1-2.5,6.1-5.2,8.9-8
			c28.5-28.4,49.1-63.8,59.8-102.6c9.7-30.9,11.1-61.8,4.1-92.7c-1.3-30.8-10.9-60.6-27.6-86.4c-19.8-33.8-47.8-62-81.4-82.2
			c-11.7-29.1-29.1-55.4-51.3-77.6l-47-36.3c-12.3-7.1-25.2-13.2-38.6-18c4.3-2.3,8.6-4.7,12.8-7.1c47.3-27,90.9-60.6,132.9-95.2
			c25.4-20.9,48.9-44.1,70.1-69.3c33.2-39.3,65.8-80.8,91.3-125.8c9.1-16.2,17.4-32.8,24.7-49.9c14.8-34.5,30.7-69.2,41.3-105.4
			c5.2-17.7,9.2-35.8,12.1-54c5.8-37.6,12.1-76.4,13-114.7C2381.2,242.2,2374.6,212.3,2360,184.6z"/>
		
			<linearGradient id="Path_11_1_" gradientUnits="userSpaceOnUse" x1="0.26" y1="489.7364" x2="1.26" y2="489.7364" gradientTransform="matrix(1891.17 0 0 1549.78 -53.62 -758213.8125)">
			<stop  offset="0.16" style="stop-color:#3C0A67"/>
			<stop  offset="1" style="stop-color:#84DBF6"/>
		</linearGradient>
		<path id="Path_11" class="st2" d="M2313.5,138.1c-9.3-28.7-25.8-54.5-48.1-74.8c-20.4-22.2-46.1-38.8-74.8-48.1
			C2162.9,0.7,2133-6,2101-4.8l-61.8,8.3c-38.8,10.7-74.1,31.3-102.6,59.8l-36.3,47c-20.9,35.6-31.8,76.1-31.7,117.4
			c-0.1,4.5-0.3,9-0.6,13.5c-3.8,17.8-8.7,35.3-14.7,52.5c-10.4,20.8-22.3,40.9-35.5,60.1c-17.5,20.2-36.4,39-56.6,56.5
			c-30,20.7-61.7,38.9-94.7,54.5c-54.3,20.3-110.7,34.6-167.8,44.1c-47.7,5-95.6,7.7-143.3,12.6c-48,5-96.2,10.7-143.6,20
			c-27.7,5.5-55,12.8-81.3,23c-43.2,16.8-88.4,34.2-126.7,61.2c-20.8,14.7-40.7,30.8-60.7,46.6c-5,4-9.9,8.1-14.7,12.4
			c-9.5,8.5-18.5,17.5-27.1,26.9C853.5,763.9,813.5,823,778,884c-24.1,41.4-47.3,83.6-74.6,123c-14.8,16.9-30.8,32.7-47.8,47.5
			c-31.1,21.5-64,40.2-97.8,57.1c-26.5,14.1-49,34.7-65.2,59.9c-20.5,22.3-34.8,49.6-41.6,79.1c-9.7,30.9-11.1,61.8-4.2,92.7
			c1.4,30.9,10.6,59.8,27.6,86.4l36.4,47c28.4,28.5,63.8,49.1,102.6,59.8l61.8,8.3c41.2,0.1,81.7-10.9,117.3-31.7
			c36-17.9,70.9-37.8,103.7-61.1c47.5-33.7,95.8-70.1,134.5-114.2c0.7-0.8,1.4-1.7,2.2-2.5c15.2,19.5,34.3,35.5,56.2,47.2l55.5,23.4
			c40.5,11.1,83.2,11.1,123.6,0l55.5-23.4c18.2-10.7,34.9-23.8,49.6-39c8.4-1.9,16.9-3.7,25.4-5.4c21.7-4.4,43.6-8.4,65.5-11.8
			c51.5-5.9,103.7-9.3,155.7-8.6c7,9,14.3,17.9,21.4,26.7c1.8,2.3,3.7,4.5,5.7,6.7c1.8,1.9,3.6,3.6,5.5,5.3
			c16.5,14.6,35.1,28.4,53,41.2c4.4,3.2,9.2,6.1,14.1,8.5c22.1,10.7,45.7,22.3,69.9,28.8c2.6,0.7,5.2,1.2,7.9,1.7
			c20,3.7,43.9,6.3,64.2,8.7c1.6,0.2,3.1,0.4,4.7,0.6c6.3,0.5,12.6,0.5,18.9-0.2c24.5-2.3,53.9-4.6,79.3-11.7
			c25-7,48.9-18.8,72.3-29.7c6.5-3,12.8-6.6,18.7-10.8c17.9-12.7,35.8-26.8,52.8-40.7c3.1-2.5,6.1-5.2,8.9-8
			c28.5-28.4,49.1-63.8,59.8-102.6c9.7-30.9,11.1-61.8,4.2-92.7c-1.4-30.9-10.6-59.8-27.6-86.4c-19.8-33.7-47.8-62-81.3-82.1
			c-11.7-29.1-29.1-55.4-51.3-77.6l-47-36.3c-12.3-7.1-25.2-13.2-38.6-18c4.3-2.3,8.6-4.7,12.8-7.1c47.3-27,90.9-60.6,132.9-95.2
			c25.4-20.9,48.9-44.1,70.1-69.3c33.2-39.3,65.8-80.8,91.3-125.8c9.1-16.2,17.4-32.8,24.7-49.9c14.8-34.5,30.7-69.2,41.3-105.4
			c5.2-17.7,9.2-35.8,12.1-54c5.8-37.6,12.1-76.4,13-114.7C2334.8,195.7,2328.1,165.8,2313.5,138.1z"/>
		
			<linearGradient id="Path_12_1_" gradientUnits="userSpaceOnUse" x1="0.26" y1="489.7357" x2="1.26" y2="489.7357" gradientTransform="matrix(1891.17 0 0 1549.78 -100.12 -758259.1875)">
			<stop  offset="0.16" style="stop-color:#3C0A67"/>
			<stop  offset="1" style="stop-color:#84DBF6"/>
		</linearGradient>
		<path id="Path_12" class="st3" d="M2267,101.6c-9.4-28.8-25.4-63.8-48.1-84.8c-20.4-22.2-46.1-38.8-74.8-48.1
			c-27.7-14.6-57.6-21.2-89.6-20l-61.8,8.3c-38.8,10.7-74.2,31.3-102.6,59.8l-36.3,47c-20.8,35.6-31.8,76.1-31.7,117.3
			c-0.1,4.5-0.3,9-0.6,13.5c-3.8,17.8-8.7,35.3-14.7,52.5c-10.5,20.8-22.3,40.9-35.5,60.1c-17.5,20.2-36.4,39-56.6,56.5
			c-30,20.7-61.7,38.9-94.8,54.5c-54.3,20.3-110.7,34.7-167.8,44.1c-47.7,5-95.6,7.7-143.3,12.6c-48,5-96.2,10.7-143.6,20
			c-27.7,5.5-55,12.8-81.3,23c-43.2,16.8-88.4,34.2-126.7,61.2c-20.8,14.7-40.8,30.8-60.8,46.6c-5,4-9.9,8.1-14.7,12.4
			c-9.5,8.5-18.6,17.5-27.1,26.9C807,717.4,767,776.5,731.5,837.5c-24.1,41.4-47.3,83.6-74.6,123c-14.8,16.9-30.8,32.7-47.8,47.5
			c-31.1,21.5-64,40.2-97.8,57.1c-26.5,14.1-49,34.7-65.2,59.9c-20.5,22.3-34.8,49.6-41.6,79.1c-9.7,30.9-11.1,61.8-4.1,92.7
			c1.3,30.8,10.9,60.6,27.6,86.4c12.1,15.7,24.2,31.4,36.4,47.1c28.4,28.5,63.8,49.1,102.6,59.8l61.8,8.3
			c41.2,0.1,81.8-10.9,117.3-31.8c36-17.9,70.9-37.9,103.7-61.1c47.5-33.7,95.8-70.1,134.5-114.2l2.2-2.5
			c15.2,19.5,34.3,35.6,56.2,47.2l55.5,23.4c40.5,11.1,83.2,11.1,123.6,0l55.5-23.4c18.2-10.7,34.9-23.8,49.6-39
			c8.4-1.9,16.9-3.7,25.3-5.4c21.7-4.5,43.6-8.4,65.5-11.8c51.6-5.9,103.7-9.2,155.7-8.6c7.1,9,14.3,17.9,21.4,26.7
			c1.8,2.3,3.7,4.5,5.7,6.6c1.8,1.9,3.6,3.6,5.6,5.3c16.5,14.6,35.1,28.4,53,41.2c4.5,3.3,9.2,6.1,14.1,8.5
			c22.1,10.7,45.7,22.3,69.9,28.8c2.6,0.7,5.2,1.2,7.9,1.7c20,3.8,43.9,6.3,64.2,8.7c1.6,0.2,3.1,0.4,4.7,0.6
			c6.3,0.5,12.6,0.5,18.9-0.2c24.5-2.3,53.9-4.6,79.3-11.7c25-7.1,48.9-18.8,72.3-29.7c6.5-3,12.8-6.6,18.7-10.8
			c18-12.7,35.8-26.8,52.8-40.7c3.1-2.5,6.1-5.2,8.9-8c28.5-28.4,49.1-63.8,59.8-102.6c9.7-30.9,11.1-61.8,4.2-92.7
			c-1.4-30.9-10.6-59.8-27.6-86.4c-19.8-33.8-47.8-62-81.4-82.2c-11.7-29.1-29.1-55.4-51.3-77.6l-47.1-36.4
			c-12.3-7.1-25.2-13.2-38.6-18c4.3-2.3,8.6-4.7,12.8-7.1c47.3-27,90.9-60.6,132.9-95.2c25.4-20.9,48.9-44.1,70.1-69.3
			c33.2-39.3,65.8-80.8,91.3-125.8c9.1-16.1,17.4-32.8,24.7-49.9c14.8-34.5,30.7-69.2,41.3-105.4c5.2-17.7,9.2-35.8,12.1-54
			c5.8-37.6,12.1-76.4,13-114.7C2288.2,149.2,2281.6,129.3,2267,101.6z"/>
	</g>
	<g id="Group_6">
		<path id="Path_5" class="st0" d="M1357.5,1334.1l-37-47.9c-29-29-65-50-104.5-60.9c-62.9-10.5-124.7-27.4-184.2-50.4
			c-65-30-126.8-66.3-184.5-108.6C782,1013,722.9,952.6,669.9,887.1c-36.8-50-70.4-102.3-100.6-156.5
			c-35.6-63.7-64.4-130-94.1-196.5c-7.3-16.3-15-32.4-23.8-48C433,453.7,409,424,385.4,395.5c-10-12-21.2-23-33.4-32.9
			c-25.5-20.5-52.4-43.2-81.4-59.8c-29.6-17-63-29.4-94.1-42.1c-13.9-5.6-28-10.6-42.4-14.7c-29.3-8.7-59.1-14.9-89.1-20.5
			c-58.5-11-118.1-19.7-174.6-38.9c-15.2-7.9-30-16.6-44.2-26.2c-20.6-18.2-39.9-37.8-57.7-58.7C-264,55.3-290.6,5.2-313.9-46.5
			c-18.1-45.5-34.6-91.7-50.9-137.9c-6.9-30.1-21.5-57.8-42.4-80.6c-16.6-25.7-39.5-46.7-66.5-61c-27.2-17.3-56.5-26.7-88.1-28.1
			c-31.5-7.1-63-5.6-94.5,4.2l-56.6,23.9c-35.1,20.6-64.4,49.9-85,85c-7.9,18.9-15.9,37.7-23.9,56.6c-11.3,41.2-11.3,84.8,0,126
			c32.1,90.8,65.7,181,106.5,268.3c38.3,82,88.1,155.1,146.4,224.4c7.6,9.1,15.5,17.9,23.7,26.5l-36.8,47.6l-23.9,56.6
			c-9.9,31.5-11.3,63-4.2,94.5c1.4,31.5,10.8,60.9,28.1,88.1c22,41.2,46.9,80.9,74.4,118.6c38.5,52.9,79,104.9,124.5,152.2
			c18.6,19.3,37.9,37.8,58,55.6c20.7,22.7,47,39.5,76.2,49c28.2,14.8,58.7,21.6,91.3,20.4c7.8,0.3,15.6,0.1,23.4-0.5
			c22.4,22.5,44.7,45.1,66.8,67.9c32.4,33.4,64.7,66.9,96.7,100.6c20.7,22.6,47,39.5,76.2,49c28.2,14.8,58.7,21.6,91.3,20.4
			c32.6,1.2,63-5.6,91.3-20.4c29.2-9.5,55.5-26.3,76.2-49l22.3-28.9c4.7,5.1,9.4,10.2,14.1,15.3c29.6,31.3,60.9,61.1,93.8,89
			c81.2,69,168.3,132.6,263.6,180.6c60.7,30.7,123.5,57.1,188,78.9c46.9,15.7,95,27.7,143.8,35.8c31.5,9.9,63,11.3,94.5,4.2
			c31.5-1.4,60.9-10.8,88.1-28.1c27-14.3,49.9-35.3,66.5-61c20.9-22.7,35.5-50.5,42.4-80.6l8.5-63
			C1390,1411.6,1378.8,1370.4,1357.5,1334.1z"/>
		
			<linearGradient id="Path_6_1_" gradientUnits="userSpaceOnUse" x1="0.37" y1="489.925" x2="1.37" y2="489.925" gradientTransform="matrix(2219.9399 0 0 2049.1799 -1654.9399 -1003278.4375)">
			<stop  offset="0.16" style="stop-color:#3C0A67"/>
			<stop  offset="1" style="stop-color:#FF47F5"/>
		</linearGradient>
		<path id="Path_6" class="st4" d="M1357.5,1334.1l-37-47.9c-29-29-65-50-104.5-60.9c-62.9-10.5-124.7-27.4-184.2-50.4
			c-65-30-126.8-66.3-184.5-108.6C782,1013,722.9,952.6,669.9,887.1c-36.8-50-70.4-102.3-100.6-156.5
			c-35.6-63.7-64.4-130-94.1-196.5c-7.3-16.3-15-32.4-23.8-48C433,453.7,409,424,385.4,395.5c-10-12-21.2-23-33.4-32.9
			c-25.5-20.5-52.4-43.2-81.4-59.8c-29.6-17-63-29.4-94.1-42.1c-13.9-5.6-28-10.6-42.4-14.7c-29.3-8.7-59.1-14.9-89.1-20.5
			c-58.5-11-118.1-19.7-174.6-38.9c-15.2-7.9-30-16.6-44.2-26.2c-20.6-18.2-39.9-37.8-57.7-58.7C-264,55.3-290.6,5.2-313.9-46.5
			c-18.1-45.5-34.6-91.7-50.9-137.9c-6.9-30.1-21.5-57.8-42.4-80.6c-16.6-25.7-39.5-46.7-66.5-61c-27.2-17.3-56.5-26.7-88.1-28.1
			c-31.5-7.1-63-5.6-94.5,4.2l-56.6,23.9c-35.1,20.6-64.4,49.9-85,85c-7.9,18.9-15.9,37.7-23.9,56.6c-11.3,41.2-11.3,84.8,0,126
			c32.1,90.8,65.7,181,106.5,268.3c38.3,82,88.1,155.1,146.4,224.4c7.6,9.1,15.5,17.9,23.7,26.5l-36.8,47.6l-23.9,56.6
			c-9.9,31.5-11.3,63-4.2,94.5c1.4,31.5,10.8,60.9,28.1,88.1c22,41.2,46.9,80.9,74.4,118.6c38.5,52.9,79,104.9,124.5,152.2
			c18.6,19.3,37.9,37.8,58,55.6c20.7,22.7,47,39.5,76.2,49c28.2,14.8,58.7,21.6,91.3,20.4c7.8,0.3,15.6,0.1,23.4-0.5
			c22.4,22.5,44.7,45.1,66.8,67.9c32.4,33.4,64.7,66.9,96.7,100.6c20.7,22.6,47,39.5,76.2,49c28.2,14.8,58.7,21.6,91.3,20.4
			c32.6,1.2,63-5.6,91.3-20.4c29.2-9.5,55.5-26.3,76.2-49l22.3-28.9c4.7,5.1,9.4,10.2,14.1,15.3c29.6,31.3,60.9,61.1,93.8,89
			c81.2,69,168.3,132.6,263.6,180.6c60.7,30.7,123.5,57.1,188,78.9c46.9,15.7,95,27.7,143.8,35.8c31.5,9.9,63,11.3,94.5,4.2
			c31.5-1.4,60.9-10.8,88.1-28.1c27-14.3,49.9-35.3,66.5-61c20.9-22.7,35.5-50.5,42.4-80.6l8.5-63
			C1390,1411.6,1378.8,1370.4,1357.5,1334.1z"/>
		
			<linearGradient id="Path_7_1_" gradientUnits="userSpaceOnUse" x1="0.37" y1="489.9246" x2="1.37" y2="489.9246" gradientTransform="matrix(2219.9399 0 0 2049.1799 -1607.5601 -1003324.9375)">
			<stop  offset="0.16" style="stop-color:#3C0A67"/>
			<stop  offset="1" style="stop-color:#FF47F5"/>
		</linearGradient>
		<path id="Path_7" class="st5" d="M1404.9,1286.8l-37-47.9c-29-29-65-50-104.5-60.9c-62.9-10.5-124.7-27.4-184.2-50.4
			c-65-30-126.8-66.3-184.6-108.6c-65.2-53.3-124.3-113.7-177.3-179.2c-36.8-50-70.4-102.3-100.6-156.6
			c-35.6-63.7-64.3-130-94.1-196.5c-7.3-16.3-15-32.4-23.8-48c-18.4-32.4-42.4-62.1-66.1-90.6c-10-12-21.2-23-33.4-32.8
			c-25.5-20.5-52.4-43.2-81.4-59.8c-29.6-17-63.1-29.4-94.1-42.1c-13.9-5.7-28-10.6-42.4-14.8c-29.2-8.6-59.2-14.8-89.1-20.5
			c-58.5-11-118.1-19.7-174.6-38.9c-15.2-7.9-30-16.6-44.2-26.2c-20.6-18.2-39.9-37.8-57.7-58.7C-216.6,8-243.3-42.2-266.5-93.8
			c-18.2-45.5-34.6-91.7-50.9-137.9c-6.9-30.1-21.5-57.8-42.4-80.6c-16.6-25.7-39.5-46.7-66.5-61c-27.2-17.3-56.5-26.7-88.1-28.1
			c-31.5-7.1-63-5.6-94.5,4.2l-56.6,23.9c-35.1,20.6-64.4,49.9-85,85l-23.9,56.6c-11.3,41.2-11.3,84.7,0,125.9
			c32.1,90.8,65.7,181,106.5,268.3c38.3,82,88.1,155.1,146.4,224.4c7.6,9.1,15.5,17.9,23.7,26.5l-36.8,47.6l-23.9,56.6
			c-9.9,31.5-11.3,63-4.2,94.5c1.4,31.5,10.8,60.9,28.1,88.1c22,41.3,46.9,80.9,74.4,118.7c38.5,52.9,79,104.9,124.5,152.2
			c18.6,19.3,37.9,37.8,58,55.6c20.7,22.7,47,39.5,76.2,49c28.2,14.8,58.7,21.6,91.3,20.4c7.8,0.3,15.6,0.1,23.4-0.5
			c22.4,22.5,44.7,45.1,66.8,67.9c32.4,33.4,64.7,66.9,96.7,100.6c20.7,22.7,47,39.5,76.2,49c28.2,14.8,58.7,21.6,91.3,20.4
			c32.6,1.2,63-5.6,91.3-20.4c29.2-9.5,55.5-26.3,76.2-49l22.3-28.9c4.7,5.1,9.4,10.2,14.1,15.3c29.6,31.3,60.9,61.1,93.8,89
			c81.2,69,168.2,132.6,263.6,180.6c60.7,30.7,123.5,57.1,188,78.9c46.9,15.8,95,27.7,143.8,35.8c31.5,9.9,63,11.3,94.5,4.2
			c31.5-1.4,60.9-10.8,88.1-28.1c27-14.3,49.9-35.3,66.5-61c20.9-22.7,35.5-50.5,42.4-80.6l8.5-63
			C1437.4,1364.3,1426.2,1323,1404.9,1286.8z"/>
		
			<linearGradient id="Path_8_1_" gradientUnits="userSpaceOnUse" x1="0.37" y1="489.9247" x2="1.37" y2="489.9247" gradientTransform="matrix(2219.9399 0 0 2049.1799 -1572.8199 -1003375.6875)">
			<stop  offset="0.16" style="stop-color:#3C0A67"/>
			<stop  offset="1" style="stop-color:#FF47F5"/>
		</linearGradient>
		<path id="Path_8" class="st6" d="M1439.7,1236.2l-37-47.9c-29-29-65-50-104.5-60.9c-62.9-10.5-124.7-27.4-184.2-50.4
			c-65-30-126.8-66.3-184.6-108.6C864.2,915,805,854.7,752,789.2c-36.8-50-70.4-102.3-100.6-156.6c-35.6-63.7-64.3-130-94.1-196.5
			c-7.3-16.3-15-32.4-23.8-48c-18.4-32.4-42.4-62.1-66.1-90.6c-10-12-21.2-23-33.4-32.8c-25.5-20.6-52.4-43.2-81.4-59.8
			c-29.6-17-63-29.4-94.1-42.1c-13.9-5.7-28-10.6-42.4-14.8c-29.2-8.6-59.2-14.8-89.1-20.5C68.6,116.6,9,107.9-47.5,88.8
			c-15.2-7.9-30-16.6-44.2-26.2c-20.6-18.2-39.9-37.8-57.7-58.7c-32.5-46.4-59.1-96.6-82.3-148.2c-18.2-45.5-34.6-91.7-50.9-137.9
			c-6.9-30.1-21.5-57.8-42.4-80.6c-16.6-25.7-39.5-46.7-66.5-61c-27.2-17.3-56.5-26.7-88.1-28.1c-31.5-7.1-63-5.6-94.5,4.2
			l-56.6,23.9c-35.1,20.6-64.4,49.9-85,85l-23.9,56.6c-11.3,41.2-11.3,84.7,0,125.9c32.1,90.8,65.7,181,106.5,268.3
			c38.3,82,88.1,155.1,146.4,224.4c7.6,9.1,15.5,17.9,23.7,26.5l-36.8,47.6l-23.9,56.6c-9.9,31.5-11.3,63-4.2,94.5
			c1.4,31.5,10.8,60.9,28.1,88.1c22,41.2,46.9,80.9,74.4,118.7c38.5,52.9,79,104.9,124.5,152.2c18.6,19.3,37.9,37.9,58,55.6
			c20.7,22.7,47,39.5,76.2,49c28.2,14.8,58.6,21.6,91.3,20.4c7.8,0.3,15.6,0.1,23.4-0.5c22.4,22.5,44.7,45.1,66.8,67.9
			c32.4,33.4,64.7,66.9,96.7,100.6c20.7,22.6,47,39.5,76.2,49c28.2,14.8,58.7,21.6,91.3,20.4c32.6,1.2,63-5.6,91.3-20.4
			c29.2-9.5,55.5-26.3,76.2-49l22.3-28.9c4.7,5.1,9.4,10.2,14.1,15.3c29.6,31.3,60.9,61.1,93.8,89
			c81.2,68.9,168.2,132.6,263.6,180.6c60.7,30.7,123.5,57.1,188,78.9c46.9,15.8,95,27.7,143.8,35.8c31.5,9.9,63,11.3,94.5,4.2
			c31.5-1.4,60.9-10.8,88.1-28.1c27-14.3,49.9-35.3,66.5-61c20.9-22.7,35.5-50.5,42.4-80.6l8.5-63
			C1472.1,1313.7,1460.9,1272.5,1439.7,1236.2z"/>
	</g>
</g>
</svg>
