<svg id="Layer_1" data-name="Layer 1" xmlns="http://www.w3.org/2000/svg" xmlns:xlink="http://www.w3.org/1999/xlink" viewBox="0 0 612 309.22"><defs><style>.cls-1{fill:#3d2265;}.cls-2,.cls-3,.cls-4{isolation:isolate;}.cls-2,.cls-3{opacity:0.7;}.cls-2{fill:url(#linear-gradient);}.cls-3{fill:url(#linear-gradient-2);}.cls-4{opacity:0.5;fill:url(#linear-gradient-3);}</style><linearGradient id="linear-gradient" x1="1.01" y1="309.85" x2="1.43" y2="309.85" gradientTransform="matrix(1891.17, 0, 0, -1549.78, -1797.17, 480387.73)" gradientUnits="userSpaceOnUse"><stop offset="0.16" stop-color="#3d2265"/><stop offset="1" stop-color="#8ad6f1"/></linearGradient><linearGradient id="linear-gradient-2" x1="1.02" y1="309.84" x2="1.45" y2="309.84" gradientTransform="matrix(1891.17, 0, 0, -1549.78, -1843.67, 480341.23)" xlink:href="#linear-gradient"/><linearGradient id="linear-gradient-3" x1="1.04" y1="309.82" x2="1.46" y2="309.82" gradientTransform="matrix(1891.17, 0, 0, -1549.78, -1890.17, 480295.03)" xlink:href="#linear-gradient"/></defs><g id="Group_10" data-name="Group 10"><path id="Path_9" data-name="Path 9" class="cls-1" d="M907.09-86.43a74.35,74.35,0,0,0-20.5-31.91,74.32,74.32,0,0,0-31.92-20.5,74.72,74.72,0,0,0-38.2-8.55l-26.37,3.55a99,99,0,0,0-43.76,25.5l-15.5,20.07A98.72,98.72,0,0,0,717.3-48.22c0,1.93-.14,3.85-.25,5.77a188.59,188.59,0,0,1-6.25,22.39A219.28,219.28,0,0,1,695.67,5.59a236.53,236.53,0,0,1-24.14,24.08,284.66,284.66,0,0,1-40.41,23.24,382,382,0,0,1-71.59,18.82c-20.34,2.15-40.78,3.28-61.13,5.38s-41,4.57-61.24,8.55a204.29,204.29,0,0,0-34.68,9.81c-18.42,7.16-37.72,14.58-54.06,26.09-8.89,6.26-17.39,13.13-25.91,19.87q-3.22,2.53-6.28,5.27a156.51,156.51,0,0,0-11.56,11.48c-20.32,22.34-37.38,47.53-52.54,73.57-10.29,17.67-20.18,35.65-31.81,52.47a210.57,210.57,0,0,1-20.39,20.24,334.67,334.67,0,0,1-41.72,24.35,74.94,74.94,0,0,0-27.82,25.54,74.63,74.63,0,0,0-17.75,33.73,75.15,75.15,0,0,0-1.77,39.54,73.77,73.77,0,0,0,11.77,36.87l15.5,20.07a99,99,0,0,0,43.76,25.5l26.36,3.55a98.82,98.82,0,0,0,50.06-13.54A329.29,329.29,0,0,0,302.54,474c20.25-14.39,40.88-29.92,57.39-48.72l.93-1.07a75.08,75.08,0,0,0,24,20.12l23.69,10a99.91,99.91,0,0,0,52.72,0l23.69-10a100.66,100.66,0,0,0,21.15-16.62c3.59-.82,7.21-1.57,10.81-2.31q13.92-2.85,28-5a525.83,525.83,0,0,1,66.4-3.66c3,3.86,6.1,7.65,9.12,11.39.78,1,1.57,1.92,2.43,2.83s1.55,1.55,2.37,2.28a286.22,286.22,0,0,0,22.62,17.57,39.66,39.66,0,0,0,6,3.64c9.42,4.55,19.51,9.5,29.83,12.3,1.11.3,2.23.52,3.36.74,8.53,1.59,18.73,2.68,27.36,3.7.68.08,1.34.17,2,.23a42.67,42.67,0,0,0,8.07-.07c10.44-1,23-1.94,33.82-5s20.85-8,30.86-12.65a50.72,50.72,0,0,0,8-4.61c7.65-5.4,15.26-11.43,22.52-17.35,1.32-1.08,2.58-2.21,3.81-3.4a99,99,0,0,0,25.5-43.76A75.05,75.05,0,0,0,850.7,345a73.77,73.77,0,0,0-11.77-36.87,99.67,99.67,0,0,0-34.71-35A98.88,98.88,0,0,0,782.35,240l-20.07-15.51a101.19,101.19,0,0,0-16.48-7.69q2.76-1.48,5.47-3c20.19-11.51,38.79-25.87,56.67-40.61a233.26,233.26,0,0,0,29.9-29.56c14.15-16.78,28.07-34.48,39-53.65A215.4,215.4,0,0,0,887.32,68.7c6.33-14.73,13.1-29.52,17.62-45a180,180,0,0,0,5.15-23c2.49-16,5.14-32.58,5.54-48.93A74.65,74.65,0,0,0,907.09-86.43Z"/><path id="Path_10" data-name="Path 10" class="cls-2" d="M907.09-86.43a74.35,74.35,0,0,0-20.5-31.91,74.32,74.32,0,0,0-31.92-20.5,74.72,74.72,0,0,0-38.2-8.55l-26.37,3.55a99,99,0,0,0-43.76,25.5l-15.5,20.07A98.72,98.72,0,0,0,717.3-48.22c0,1.93-.14,3.85-.25,5.77a188.59,188.59,0,0,1-6.25,22.39A219.28,219.28,0,0,1,695.67,5.59a236.53,236.53,0,0,1-24.14,24.08,284.66,284.66,0,0,1-40.41,23.24,382,382,0,0,1-71.59,18.82c-20.34,2.15-40.78,3.28-61.13,5.38s-41,4.57-61.24,8.55a204.29,204.29,0,0,0-34.68,9.81c-18.42,7.16-37.72,14.58-54.06,26.09-8.89,6.26-17.39,13.13-25.91,19.87q-3.22,2.53-6.28,5.27a156.51,156.51,0,0,0-11.56,11.48c-20.32,22.34-37.38,47.53-52.54,73.57-10.29,17.67-20.18,35.65-31.81,52.47a210.57,210.57,0,0,1-20.39,20.24,334.67,334.67,0,0,1-41.72,24.35,74.94,74.94,0,0,0-27.82,25.54,74.63,74.63,0,0,0-17.75,33.73,75.15,75.15,0,0,0-1.77,39.54,73.77,73.77,0,0,0,11.77,36.87l15.5,20.07a99,99,0,0,0,43.76,25.5l26.36,3.55a98.82,98.82,0,0,0,50.06-13.54A329.29,329.29,0,0,0,302.54,474c20.25-14.39,40.88-29.92,57.39-48.72l.93-1.07a75.08,75.08,0,0,0,24,20.12l23.69,10a99.91,99.91,0,0,0,52.72,0l23.69-10a100.66,100.66,0,0,0,21.15-16.62c3.59-.82,7.21-1.57,10.81-2.31q13.92-2.85,28-5a525.83,525.83,0,0,1,66.4-3.66c3,3.86,6.1,7.65,9.12,11.39.78,1,1.57,1.92,2.43,2.83s1.55,1.55,2.37,2.28a286.22,286.22,0,0,0,22.62,17.57,39.66,39.66,0,0,0,6,3.64c9.42,4.55,19.51,9.5,29.83,12.3,1.11.3,2.23.52,3.36.74,8.53,1.59,18.73,2.68,27.36,3.7.68.08,1.34.17,2,.23a42.67,42.67,0,0,0,8.07-.07c10.44-1,23-1.94,33.82-5s20.85-8,30.86-12.65a50.72,50.72,0,0,0,8-4.61c7.65-5.4,15.26-11.43,22.52-17.35,1.32-1.08,2.58-2.21,3.81-3.4a99,99,0,0,0,25.5-43.76A75.05,75.05,0,0,0,850.7,345a73.77,73.77,0,0,0-11.77-36.87,99.67,99.67,0,0,0-34.71-35A98.88,98.88,0,0,0,782.35,240l-20.07-15.51a101.19,101.19,0,0,0-16.48-7.69q2.76-1.48,5.47-3c20.19-11.51,38.79-25.87,56.67-40.61a233.26,233.26,0,0,0,29.9-29.56c14.15-16.78,28.07-34.48,39-53.65A215.4,215.4,0,0,0,887.32,68.7c6.33-14.73,13.1-29.52,17.62-45a180,180,0,0,0,5.15-23c2.49-16,5.14-32.58,5.54-48.93A74.65,74.65,0,0,0,907.09-86.43Z"/><path id="Path_11" data-name="Path 11" class="cls-3" d="M887.26-106.26a74.31,74.31,0,0,0-20.51-31.91,74.31,74.31,0,0,0-31.91-20.51,74.72,74.72,0,0,0-38.21-8.54l-26.36,3.54a99.19,99.19,0,0,0-43.76,25.5L711-118.1A98.56,98.56,0,0,0,697.47-68c-.05,1.92-.14,3.85-.25,5.77A189.12,189.12,0,0,1,691-39.89a218.78,218.78,0,0,1-15.14,25.65A236.44,236.44,0,0,1,651.7,9.84a284.66,284.66,0,0,1-40.41,23.24A382,382,0,0,1,539.7,51.9c-20.34,2.15-40.78,3.27-61.13,5.38s-41,4.56-61.24,8.55a204.63,204.63,0,0,0-34.69,9.8c-18.41,7.17-37.71,14.59-54.05,26.1-8.89,6.26-17.39,13.13-25.91,19.87q-3.23,2.54-6.28,5.27a156.63,156.63,0,0,0-11.57,11.48c-20.31,22.33-37.37,47.53-52.53,73.56-10.29,17.67-20.18,35.65-31.81,52.48a211.71,211.71,0,0,1-20.39,20.24A335.92,335.92,0,0,1,138.38,309a74.94,74.94,0,0,0-27.82,25.54,74.65,74.65,0,0,0-17.75,33.72A75,75,0,0,0,91,407.79a73.76,73.76,0,0,0,11.76,36.87l15.51,20.07a99,99,0,0,0,43.76,25.5l26.36,3.54a98.62,98.62,0,0,0,50-13.54,327.66,327.66,0,0,0,44.23-26.07c20.25-14.4,40.87-29.92,57.39-48.72l.93-1.07a75.1,75.1,0,0,0,24,20.12l23.69,10a99.71,99.71,0,0,0,52.72,0l23.69-10a100.92,100.92,0,0,0,21.15-16.62c3.59-.83,7.2-1.57,10.81-2.31q13.9-2.85,27.94-5a525.93,525.93,0,0,1,66.4-3.65c3,3.85,6.1,7.65,9.12,11.38.79,1,1.58,1.93,2.44,2.84s1.54,1.55,2.36,2.27A284.16,284.16,0,0,0,627.94,431a41.36,41.36,0,0,0,6,3.64c9.42,4.54,19.5,9.5,29.83,12.29,1.11.3,2.23.53,3.36.74,8.52,1.6,18.73,2.69,27.36,3.7.67.08,1.34.18,2,.24a43.51,43.51,0,0,0,8.07-.07c10.45-1,23-1.94,33.83-5s20.85-8,30.86-12.65a51,51,0,0,0,8-4.61c7.66-5.4,15.27-11.43,22.52-17.36,1.33-1.07,2.59-2.2,3.82-3.39a99,99,0,0,0,25.5-43.76,75,75,0,0,0,1.77-39.54,73.76,73.76,0,0,0-11.76-36.87,99.62,99.62,0,0,0-34.72-35,98.89,98.89,0,0,0-21.86-33.09l-20.07-15.5A101.24,101.24,0,0,0,726,197c1.83-1,3.66-2,5.47-3,20.19-11.51,38.79-25.87,56.67-40.62A232.6,232.6,0,0,0,818,123.78c14.14-16.78,28.07-34.47,39-53.64a214.53,214.53,0,0,0,10.53-21.28c6.33-14.73,13.1-29.52,17.62-45a182.69,182.69,0,0,0,5.15-23c2.49-16,5.14-32.57,5.54-48.92A74.75,74.75,0,0,0,887.26-106.26Z"/><path id="Path_12" data-name="Path 12" class="cls-4" d="M867.42-121.83c-4-12.29-10.83-27.19-20.5-36.18A74.35,74.35,0,0,0,815-178.51,74.65,74.65,0,0,0,776.8-187l-26.36,3.54A99,99,0,0,0,706.68-158l-15.51,20.07a98.82,98.82,0,0,0-13.54,50.05c0,1.93-.13,3.85-.24,5.77a190,190,0,0,1-6.25,22.39A219.48,219.48,0,0,1,656-34.07,237.46,237.46,0,0,1,631.87-10a284.7,284.7,0,0,1-40.42,23.23,380.33,380.33,0,0,1-71.58,18.82c-20.34,2.15-40.78,3.28-61.13,5.38S417.71,42,397.5,46a204.66,204.66,0,0,0-34.69,9.81C344.39,63,325.1,70.38,308.76,81.89c-8.89,6.27-17.39,13.14-25.92,19.87-2.14,1.7-4.23,3.45-6.27,5.27A156.66,156.66,0,0,0,265,118.51c-20.32,22.34-37.38,47.54-52.54,73.57-10.29,17.67-20.17,35.65-31.8,52.47a210.67,210.67,0,0,1-20.39,20.25,336.58,336.58,0,0,1-41.72,24.34,74.9,74.9,0,0,0-27.83,25.54A74.73,74.73,0,0,0,73,348.41,75.18,75.18,0,0,0,71.2,388,73.84,73.84,0,0,0,83,424.83L98.48,444.9a99.19,99.19,0,0,0,43.76,25.5l26.36,3.54a98.72,98.72,0,0,0,50.05-13.54,328.67,328.67,0,0,0,44.22-26.08c20.25-14.39,40.88-29.91,57.39-48.72.32-.35.62-.71.93-1.06a75.18,75.18,0,0,0,24,20.11l23.69,10a100,100,0,0,0,52.73,0l23.68-10A100.29,100.29,0,0,0,466.4,388c3.6-.83,7.21-1.58,10.82-2.32q13.9-2.84,27.94-5a527.71,527.71,0,0,1,66.4-3.66c3,3.86,6.1,7.65,9.12,11.39.78,1,1.57,1.93,2.43,2.83s1.55,1.56,2.37,2.28a286.35,286.35,0,0,0,22.62,17.58,41.9,41.9,0,0,0,6,3.64c9.42,4.54,19.51,9.5,29.83,12.29,1.11.3,2.23.53,3.36.74,8.53,1.6,18.73,2.69,27.37,3.7.67.08,1.33.17,2,.24a44.4,44.4,0,0,0,8.07-.07c10.44-1,23-2,33.82-5s20.85-8,30.86-12.65a51.39,51.39,0,0,0,8-4.61c7.66-5.41,15.26-11.43,22.52-17.36q2-1.62,3.82-3.39a99.19,99.19,0,0,0,25.5-43.76A75.19,75.19,0,0,0,811,305.35a73.77,73.77,0,0,0-11.77-36.87,99.48,99.48,0,0,0-34.71-35,98.82,98.82,0,0,0-21.87-33.09l-20.07-15.51a101.93,101.93,0,0,0-16.47-7.69q2.75-1.49,5.46-3c20.2-11.51,38.79-25.86,56.68-40.61A233.17,233.17,0,0,0,798.17,104c14.15-16.78,28.07-34.48,39-53.65A215.48,215.48,0,0,0,847.66,29c6.33-14.73,13.1-29.52,17.61-45a179.26,179.26,0,0,0,5.15-23c2.49-16,5.14-32.58,5.55-48.92C876.48-101.54,873.63-110,867.42-121.83Z"/></g></svg>